Coordinates
version=1
nRows=11
nColumns=63
inDegrees=yes

Units are S.I. units (second, meters, Newtons, ...)
If the header above contains a line with 'inDegrees', this indicates whether rotational values are in degrees (yes) or radians (no).

endheader
time	pelvis_tilt	pelvis_list	pelvis_rotation	pelvis_tx	pelvis_ty	pelvis_tz	hip_flexion_r	hip_adduction_r	hip_rotation_r	knee_angle_r	knee_angle_r_beta	ankle_angle_r	subtalar_angle_r	mtp_angle_r	hip_flexion_l	hip_adduction_l	hip_rotation_l	knee_angle_l	knee_angle_l_beta	ankle_angle_l	subtalar_angle_l	mtp_angle_l	L5_S1_Flex_Ext	L5_S1_Lat_Bending	L5_S1_axial_rotation	L4_L5_Flex_Ext	L4_L5_Lat_Bending	L4_L5_axial_rotation	L3_L4_Flex_Ext	L3_L4_Lat_Bending	L3_L4_axial_rotation	L2_L3_Flex_Ext	L2_L3_Lat_Bending	L2_L3_axial_rotation	L1_L2_Flex_Ext	L1_L2_Lat_Bending	L1_L2_axial_rotation	L1_T12_Flex_Ext	L1_T12_Lat_Bending	L1_T12_axial_rotation	Abs_r3	Abs_r2	Abs_r1	Abs_t1	Abs_t2	neck_flexion	neck_bending	neck_rotation	arm_flex_r	arm_add_r	arm_rot_r	elbow_flex_r	pro_sup_r	wrist_flex_r	wrist_dev_r	arm_flex_l	arm_add_l	arm_rot_l	elbow_flex_l	pro_sup_l	wrist_flex_l	wrist_dev_l
      1.97500000	      1.91966533	     -2.36733416	     94.82029994	      0.22612115	      0.98221228	      0.34776025	    -12.61340847	      3.35098672	     -5.03362243	      2.39286983	      0.04176346	     20.90762678	     -2.75268901	      0.00000000	     -9.27869371	     -2.80051082	    -13.96529617	      8.13681770	      0.14201426	     27.45719016	     14.64546201	      0.00000000	      0.03196391	      0.02704560	     -0.96523311	      0.05936018	      0.03597065	     -1.02556018	      0.05251351	      0.06575868	     -1.02556018	      0.03653155	      0.06575868	     -0.84457898	      0.02968169	      0.05515139	     -0.78425191	      0.01826418	      0.04189364	     -0.72392484	      0.22831503	      0.30594526	     -5.36833701	      0.00000000	      0.00000000	      3.96526353	      4.21491999	     -4.66650775	      9.55850906	     -8.73497289	     -6.88887979	    134.84563936	     80.22170981	      0.94024989	     23.77927640	     11.70399049	    -12.29110383	     -1.41680919	    130.95962339	     86.96770750	    -12.38468580	     -7.93852504
      2.00000000	      1.98653674	     -2.19713331	     94.58184449	      0.22591767	      0.98236025	      0.34828134	    -12.74190325	      3.35115131	     -4.72089686	      2.45666127	      0.04287683	     20.82080559	     -2.86449293	      0.00000000	     -9.57127375	     -2.76634169	    -14.09653029	      7.70570483	      0.13448992	     27.79128732	     14.69149393	      0.00000000	      0.00321314	      0.04817517	     -0.94570757	      0.00596712	      0.06407297	     -1.00481429	      0.00527887	      0.11713310	     -1.00481429	      0.00367230	      0.11713310	     -0.82749412	      0.00298372	      0.09823880	     -0.76838740	      0.00183599	      0.07462333	     -0.70928068	      0.02295114	      0.54496711	     -5.25974178	      0.00000000	      0.00000000	      4.81766449	      4.07707570	     -4.09209090	      9.44439931	     -8.81128892	     -6.80967127	    133.59568547	     79.18096567	      1.39665110	     25.12670231	     12.03930681	    -12.15310467	     -1.83770811	    127.91843940	     86.47098805	    -11.92930764	     -9.24474891
      2.02500000	      2.03804643	     -1.90670452	     94.44195771	      0.22554517	      0.98268749	      0.34922186	    -12.95374983	      3.35910592	     -4.73763531	      2.60334283	      0.04543690	     20.82614136	     -2.75263697	      0.00000000	     -9.97928175	     -2.73719798	    -14.13844338	      7.28743613	      0.12718975	     27.85863637	     14.72703166	      0.00000000	     -0.04526622	      0.06869824	     -1.03919372	     -0.08406390	      0.09136866	     -1.10414333	     -0.07436788	      0.16703290	     -1.10414333	     -0.05173477	      0.16703290	     -0.90929451	     -0.04203422	      0.14008945	     -0.84434490	     -0.02586512	      0.10641358	     -0.77939529	     -0.32333211	      0.77712824	     -5.77968373	      0.00000000	      0.00000000	      5.59128982	      3.57020625	     -3.53938695	     10.07047990	     -8.81923004	     -6.08498634	    131.67097657	     78.44002132	      1.54185603	     26.41303639	     12.14628425	    -12.17697340	     -2.73447007	    125.27302682	     85.67060500	    -11.85397781	     -9.67837658
      2.05000000	      2.13706866	     -1.82301976	     94.36596398	      0.22498097	      0.98284893	      0.35014997	    -12.93078542	      3.39687491	     -5.24721014	      2.74870781	      0.04797400	     20.93942915	     -1.93903503	      0.00000000	    -10.14030646	     -2.75474235	    -14.01850696	      6.98169419	      0.12185355	     27.58421236	     14.52442663	      0.00000000	     -0.05228253	      0.10026497	     -1.17448376	     -0.09709388	      0.13335240	     -1.24788900	     -0.08589496	      0.24378424	     -1.24788900	     -0.05975370	      0.24378424	     -1.02767329	     -0.04854955	      0.20446032	     -0.95426806	     -0.02987424	      0.15531043	     -0.88086282	     -0.37344885	      1.13421735	     -6.53212635	      0.00000000	      0.00000000	      6.05876783	      3.19692341	     -2.50113065	     11.04996584	     -8.89791224	     -5.13780152	    129.67228272	     77.58970562	      1.67086681	     27.77642811	     11.97620253	    -12.14728931	     -3.88917657	    123.05403246	     84.06278440	    -11.31828094	    -10.41986382
      2.07500000	      2.20157922	     -1.70573073	     94.41398475	      0.22418886	      0.98302339	      0.35107962	    -12.82399977	      3.32022241	     -8.55564814	      3.19283040	      0.05572540	     22.00795015	      2.78112793	      0.00000000	    -10.35109872	     -2.72521139	    -13.25553624	      6.65926971	      0.11622618	     27.08486678	     13.56857598	      0.00000000	     -0.07226178	      0.12626116	     -1.29321007	     -0.13419736	      0.16792735	     -1.37403570	     -0.11871888	      0.30699139	     -1.37403570	     -0.08258799	      0.30699139	     -1.13155881	     -0.06710229	      0.25747176	     -1.05073318	     -0.04129038	      0.19557854	     -0.96990755	     -0.51615869	      1.42829151	     -7.19244644	      0.00000000	      0.00000000	      6.63560349	      2.60723484	     -2.11045317	     11.88050783	     -9.12002634	     -4.26198758	    128.24542971	     78.50150437	      1.45072417	     27.86224756	     11.83323525	    -12.09185143	     -4.84804890	    121.72632318	     82.68554916	    -10.69694708	    -10.50479527
      2.10000000	      2.21415888	     -1.69208989	     94.42808470	      0.22374234	      0.98299256	      0.35160519	    -12.71962685	      3.26165779	     -9.71368600	      3.39201610	      0.05920185	     22.42942354	      4.56965527	      0.00000000	    -10.43151109	     -2.70152779	    -13.11335691	      6.53578184	      0.11407091	     26.72820041	     13.25926139	      0.00000000	     -0.07846943	      0.14678054	     -1.38942945	     -0.14572558	      0.19521812	     -1.47626879	     -0.12891743	      0.35688221	     -1.47626879	     -0.08968271	      0.35688221	     -1.21575077	     -0.07286671	      0.29931488	     -1.12891143	     -0.04483743	      0.22736306	     -1.04207209	     -0.56049930	      1.66041084	     -7.72758979	      0.00000000	      0.00000000	      7.24849703	      2.11509294	     -1.47467814	     12.58390518	     -9.39367346	     -3.46345612	    127.54635103	     77.95695944	      1.50633930	     27.99748331	     11.35432337	    -12.10228589	     -5.73061217	    121.50969339	     82.23264327	    -10.34812754	    -10.83301498
      2.12500000	      2.13030144	     -1.85147374	     94.53980252	      0.22368287	      0.98268064	      0.35164578	    -12.57489800	      3.20069555	     -9.77057133	      3.32545159	      0.05804008	     22.56080335	      4.88623180	      0.00000000	    -10.32235184	     -2.63299096	    -13.19875972	      6.50697847	      0.11356820	     26.41598682	     13.19952640	      0.00000000	     -0.06264786	      0.14566418	     -1.42731959	     -0.11634334	      0.19373336	     -1.51652706	     -0.10292417	      0.35416790	     -1.51652706	     -0.07160024	      0.35416790	     -1.24890464	     -0.05817480	      0.29703840	     -1.15969716	     -0.03579699	      0.22563382	     -1.07048969	     -0.44748741	      1.64778238	     -7.93832335	      0.00000000	      0.00000000	      7.88502457	      1.90954812	     -1.23549783	     12.66088534	     -9.66054999	     -3.17388433	    127.99095473	     77.84587177	      1.30922167	     27.87679857	     10.79938158	    -12.21921995	     -6.09349060	    122.20013877	     82.40424877	    -10.39286459	    -11.41545088
      2.15000000	      2.03525901	     -1.85872944	     94.78082510	      0.22367446	      0.98251111	      0.35114156	    -12.62658704	      3.18133148	     -9.79938089	      3.27947827	      0.05723769	     22.73741094	      4.99329125	      0.00000000	    -10.34339531	     -2.61759727	    -13.25470871	      6.59149356	      0.11504327	     26.20932937	     13.17236040	      0.00000000	     -0.07044891	      0.13777136	     -1.43423693	     -0.13083067	      0.18323591	     -1.52387674	     -0.11574051	      0.33497729	     -1.52387674	     -0.08051606	      0.33497729	     -1.25495732	     -0.06541886	      0.28094336	     -1.16531751	     -0.04025451	      0.21340784	     -1.07567770	     -0.50320951	      1.55849719	     -7.97679554	      0.00000000	      0.00000000	      8.06218264	      1.88942975	     -1.05881355	     12.29904017	     -9.97218394	     -3.32460402	    129.13726256	     77.58604088	      1.22983913	     27.67813702	     10.31702317	    -12.36043090	     -6.17383596	    123.38753393	     82.63257595	    -10.32835961	    -11.93124703
      2.17500000	      1.88720722	     -2.29867277	     95.25297112	      0.22334579	      0.98171864	      0.35061873	    -12.26978633	      3.06926069	    -11.43428457	      3.18678952	      0.05561997	     23.08411504	      6.90935065	      0.00000000	     -9.88492116	     -2.54155435	    -13.11404726	      6.53885979	      0.11412463	     26.21963466	     13.47793692	      0.00000000	     -0.01612373	      0.11579830	     -1.40830130	     -0.02994339	      0.15401174	     -1.49632013	     -0.02648968	      0.28155198	     -1.49632013	     -0.01842781	      0.28155198	     -1.23226364	     -0.01497250	      0.23613589	     -1.14424481	     -0.00921310	      0.17937156	     -1.05622598	     -0.11517022	      1.30993351	     -7.83254935	      0.00000000	      0.00000000	      8.24993253	      2.25970297	     -1.07412783	     11.24028657	    -10.73695017	     -3.30558787	    130.95845713	     73.84552123	     -1.44762474	     26.87437448	     10.06069248	    -12.34506919	     -5.75079104	    124.34172682	     83.96965470	    -10.69874481	    -13.40656612
      2.20000000	      1.66194232	     -2.56094562	     95.65157048	      0.22321069	      0.98106300	      0.34993896	    -12.12775526	      2.91205235	    -12.02414187	      3.13212131	      0.05466583	     23.15477262	      7.14750219	      0.00000000	     -9.57658049	     -2.39849098	    -12.94342476	      6.56029501	      0.11449875	     26.51037596	     13.88005617	      0.00000000	      0.00923151	      0.07753560	     -1.29009731	      0.01714384	      0.10312235	     -1.37072840	      0.01516645	      0.18852006	     -1.37072840	      0.01055070	      0.18852006	     -1.12883515	      0.00857238	      0.15811060	     -1.04820407	      0.00527489	      0.12010265	     -0.96757298	      0.06593978	      0.87709825	     -7.17513423	      0.00000000	      0.00000000	      8.07445712	      2.74618606	     -1.89954886	      9.57999368	    -11.09872421	     -4.45370576	    132.92858410	     72.79855578	     -1.42392011	     26.17302355	     10.29466400	    -12.27627387	     -4.90111067	    124.93700613	     84.30397124	    -10.32941036	    -13.39240445
      2.22500000	      1.54591966	     -2.81026196	     95.87795769	      0.22299874	      0.98032500	      0.34939108	    -11.98696005	      2.82203844	    -11.97413947	      3.09717230	      0.05405585	     23.03202827	      6.58292022	      0.00000000	     -9.30145830	     -2.28533502	    -12.60530218	      6.49319977	      0.11332772	     26.94856188	     13.97601441	      0.00000000	      0.04103104	      0.06091682	     -1.20671080	      0.07619874	      0.08101937	     -1.28213023	      0.06740989	      0.14811315	     -1.28213023	      0.04689437	      0.14811315	     -1.05587195	      0.03810142	      0.12422157	     -0.98045253	      0.02344513	      0.09436015	     -0.90503310	      0.29308059	      0.68910321	     -6.71136347	      0.00000000	      0.00000000	      7.48634125	      2.71988709	     -2.57451997	      8.24692319	    -11.30346251	     -5.28393837	    134.10730181	     71.44642808	     -0.98480353	     25.87330956	     10.30872490	    -12.04913145	     -4.59892907	    125.02664810	     84.39649324	     -9.31217660	    -13.48841683
